<svg height="800" width="800" xmlns="http://www.w3.org/2000/svg" viewBox="0 0 288.4 288.4" xml:space="preserve"><path style="fill:#51b3da" d="M156 8C95 8 44 61 47 124v10l-27 45h27v40c0 10 8 18 19 18h51v44h82v-2c0-30 12-59 34-80A110 110 0 0 0 156 8z"/><path style="fill:#ffda79" d="M104 86c17 25 37 7 48 13 3 2 4 6 4 10s-1 8 1 12c3 8 14 10 23 9s10 1 13 9c4 13 13 22 26 22 7 0 12-4 15-10a83 83 0 0 0-77-116c-33 1-72 23-53 51z"/><path style="fill:#13829b" d="M156 0C90 1 37 57 40 123v9l-27 43c-3 5 1 11 7 11h20v33c0 14 11 26 26 26h43v36c0 4 3 7 8 7h82c4 0 8-3 8-7 0-32 12-58 32-76 23-23 37-54 37-87C276 52 222-1 156 0zm72 194c-22 20-35 49-36 79h-68v-36c0-4-3-7-7-7H66c-6 0-11-5-11-11v-40c0-4-4-8-8-8H33c22-36 22-34 22-37v-8c0-4-5-45 30-81a103 103 0 1 1 143 149z"/><path style="fill:#13829b" d="M234 69a90 90 0 0 0-129-24c-9 6-22 24-7 45 19 28 44 13 50 15l1 7c-1 3-1 7 1 12 6 17 31 13 34 13l2 5c11 33 46 34 55 12 12-28 9-60-7-85zm-7 79c-1 3-4 6-8 6-9 0-15-6-19-17-4-10-7-16-21-15-6 1-14 0-15-4v-9c0-8-3-14-9-17-14-8-30 11-45-11-9-13 2-22 4-24 35-25 83-16 107 20 14 21 16 48 6 71z"/></svg>